<?xml version="1.0" encoding="UTF-8" standalone="no"?>
<svg
   version="1.1"
   width="33"
   height="33"
   class="_2XbKI _1K4Wl _1_O7b  X8cCv _3oeLy _1IRia _3ajG7  kAoO0 _2kVrO _1f63k"
   id="svg20"
   sodipodi:docname="facebook-icon.svg"
   inkscape:version="1.1.1 (3bf5ae0d25, 2021-09-20)"
   xmlns:inkscape="http://www.inkscape.org/namespaces/inkscape"
   xmlns:sodipodi="http://sodipodi.sourceforge.net/DTD/sodipodi-0.dtd"
   xmlns="http://www.w3.org/2000/svg"
   xmlns:svg="http://www.w3.org/2000/svg">
  <defs
     id="defs24" />
  <sodipodi:namedview
     id="namedview22"
     pagecolor="#ffffff"
     bordercolor="#999999"
     borderopacity="1"
     inkscape:pageshadow="0"
     inkscape:pageopacity="0"
     inkscape:pagecheckerboard="0"
     showgrid="false"
     inkscape:zoom="21.980196"
     inkscape:cx="14.535812"
     inkscape:cy="16.992569"
     inkscape:window-width="1920"
     inkscape:window-height="1001"
     inkscape:window-x="-9"
     inkscape:window-y="1341"
     inkscape:window-maximized="1"
     inkscape:current-layer="g10" />
  <g
     id="g10"
     style="display:inline">
    <svg
       width="33"
       height="33"
       x="0"
       y="0"
       viewBox="0 0 65 65"
       version="1.1"
       id="svg8">
      <g
         data-hook="textFill"
         id="g6">
        <path
           transform="translate(-1,-1)"
           class="_3eJ0f"
           d="M 43.5,17.4 H 24.9 a 3.1,3.1 0 0 0 -3.3,3.1 v 29.1 a 2,2 0 0 0 1.1,2 2.1,2.1 0 0 0 2.2,-0.5 L 34,40.9 34.4,40.7 H 40 c 2.4,0 2.8,-1.7 3,-2.7 0.2,-1 2.5,-12.6 3.3,-16.3 0.8,-3.7 -0.1,-4.4 -2.9,-4.4 z m -0.4,20.7 c 0.2,-0.8 2.5,-12.6 3.3,-16.3 z m -0.7,-15.7 -0.8,4 a 1.1,1.1 0 0 1 -1,0.8 h -7.2 a 1.5,1.5 0 0 0 -1.5,1.4 v 0.9 a 1.5,1.5 0 0 0 1.5,1.5 h 6.2 a 1,1 0 0 1 0.9,1.1 l -0.8,4.1 a 1,1 0 0 1 -1,0.8 h -5 c -1,0 -1.3,0 -1.9,0.8 L 25.6,45 H 25.5 V 22.3 a 1.2,1.2 0 0 1 1.1,-1.1 h 14.9 a 1,1 0 0 1 0.9,1.2 z"
           id="path4"
           style="fill:#ffffff;fill-opacity:1;stroke:none;stroke-opacity:1" />
      </g>
    </svg>
  </g>
</svg>
