<?xml version="1.0" encoding="UTF-8" standalone="no"?>
<!-- Created with Inkscape (http://www.inkscape.org/) -->

<svg
   width="589"
   height="308"
   viewBox="0 0 155.83958 81.491669"
   version="1.1"
   id="svg831"
   inkscape:version="1.1.1 (3bf5ae0d25, 2021-09-20)"
   sodipodi:docname="logo.svg"
   xmlns:inkscape="http://www.inkscape.org/namespaces/inkscape"
   xmlns:sodipodi="http://sodipodi.sourceforge.net/DTD/sodipodi-0.dtd"
   xmlns="http://www.w3.org/2000/svg"
   xmlns:svg="http://www.w3.org/2000/svg">
  <sodipodi:namedview
     id="namedview833"
     pagecolor="#ffffff"
     bordercolor="#999999"
     borderopacity="1"
     inkscape:pageshadow="0"
     inkscape:pageopacity="0"
     inkscape:pagecheckerboard="0"
     inkscape:document-units="mm"
     showgrid="false"
     units="px"
     inkscape:zoom="1.4685247"
     inkscape:cx="251.61306"
     inkscape:cy="220.97007"
     inkscape:window-width="1920"
     inkscape:window-height="1001"
     inkscape:window-x="-9"
     inkscape:window-y="1341"
     inkscape:window-maximized="1"
     inkscape:current-layer="layer1" />
  <defs
     id="defs828" />
  <g
     inkscape:label="Camada 1"
     inkscape:groupmode="layer"
     id="layer1">
    <g
       id="g1521"
       transform="translate(0,8.8368934)">
      <g
         aria-label="- BOUTIQUE ARTESANAL -"
         id="text4414"
         style="font-size:3.70417px;line-height:1.25;font-family:'Avenir LT W01';-inkscape-font-specification:'Avenir LT W01';letter-spacing:1.48167px;fill:#ffffff;stroke-width:0.264583">
        <path
           d="M 40.852221,6.3371178 V 6.537143 h -0.91493 V 6.3371178 Z"
           id="path830" />
        <path
           d="m 46.119542,7.0927685 q 0.314854,0 0.481542,-0.1333502 0.166687,-0.1370543 0.166687,-0.370417 0,-0.2518835 -0.174096,-0.3963462 -0.170391,-0.1444626 -0.448204,-0.1444626 h -0.60378 v 1.044576 z m -0.05556,-1.2668262 q 0.2667,0 0.42598,-0.1148293 0.162983,-0.1148292 0.162983,-0.3259669 0,-0.4593171 -0.555625,-0.4704296 h -0.555626 v 0.9112258 z m 0.0074,-1.133476 q 0.411162,0 0.614892,0.1666877 0.207433,0.1666876 0.211137,0.5259921 0,0.2074335 -0.122237,0.3556003 -0.122238,0.1444626 -0.348192,0.1889127 v 0.00741 q 0.255588,0.014817 0.418571,0.1926169 0.162984,0.1778001 0.166688,0.4519087 0,0.348192 -0.233363,0.5408088 -0.229659,0.1889127 -0.637117,0.1926169 H 45.297216 V 4.6924663 Z"
           id="path832" />
        <path
           d="m 49.186593,6.0037425 q 0,0.5000629 0.307446,0.8260299 0.307446,0.3222628 0.803805,0.3296711 0.500063,0 0.803805,-0.3259669 0.303742,-0.3296712 0.307446,-0.8297341 0,-0.5074713 -0.303742,-0.8260299 -0.303742,-0.3222628 -0.811213,-0.3296712 -0.496359,0 -0.800101,0.325967 -0.303742,0.325967 -0.307446,0.8297341 z m 1.111251,-1.3779513 q 0.400051,0 0.707497,0.1778002 0.307446,0.174096 0.474133,0.4926546 0.170392,0.3148545 0.174096,0.7074965 0,0.6037797 -0.381529,0.9890134 -0.38153,0.3815295 -0.974197,0.3889378 -0.596371,0 -0.970492,-0.3852337 -0.374122,-0.3889378 -0.385234,-0.9927175 0.0037,-0.6037797 0.377825,-0.9853092 0.374121,-0.3815295 0.977901,-0.3926421 z"
           id="path834" />
        <path
           d="m 53.879777,4.6924663 v 1.5742722 q 0,0.4259796 0.174096,0.6556381 0.177801,0.2296586 0.537105,0.2370669 0.703792,0 0.711201,-0.9297467 V 4.6924663 h 0.244475 v 1.6002014 q 0,0.5148797 -0.240771,0.8001008 -0.240771,0.285221 -0.714905,0.2889252 -0.466725,0 -0.711201,-0.2815169 Q 53.639006,6.8149557 53.635302,6.3111886 V 4.6924663 Z"
           id="path836" />
        <path
           d="M 59.42121,4.6924663 V 4.9147165 H 58.5248 V 7.3150187 H 58.280325 V 4.9147165 H 57.383916 V 4.6924663 Z"
           id="path838" />
        <path
           d="M 61.551108,4.6924663 V 7.3150187 H 61.306633 V 4.6924663 Z"
           id="path840" />
        <path
           d="m 63.825464,5.9704049 q 0,0.477838 0.322263,0.7963966 0.325967,0.3185586 0.803805,0.325967 0.47043,-0.0037 0.755651,-0.325967 0.288925,-0.3222628 0.288925,-0.7963966 0,-0.5074712 -0.303742,-0.8149173 -0.300038,-0.3074462 -0.785284,-0.3074462 -0.492655,0 -0.785284,0.3148545 -0.292629,0.3111503 -0.296334,0.807509 z m 1.085322,-1.3446137 q 0.592667,0.0037 0.955676,0.3778254 0.366713,0.3741211 0.374121,0.9667883 0,0.3593045 -0.185208,0.6852715 -0.181505,0.3222628 -0.47043,0.4296837 v 0.00741 h 0.818622 v 0.2222502 h -1.452035 q -0.374121,0 -0.69268,-0.1778002 -0.318558,-0.1815043 -0.496359,-0.4889504 -0.1778,-0.3074462 -0.181504,-0.6778632 0,-0.588963 0.370417,-0.9630841 0.374121,-0.3741212 0.95938,-0.3815296 z"
           id="path842" />
        <path
           d="m 68.518648,4.6924663 v 1.5742722 q 0,0.4259796 0.174096,0.6556381 0.1778,0.2296586 0.537104,0.2370669 0.703793,0 0.711201,-0.9297467 V 4.6924663 h 0.244475 v 1.6002014 q 0,0.5148797 -0.240771,0.8001008 -0.240771,0.285221 -0.714905,0.2889252 -0.466725,0 -0.7112,-0.2815169 Q 68.277877,6.8149557 68.274173,6.3111886 V 4.6924663 Z"
           id="path844" />
        <path
           d="m 73.941546,4.6924663 v 0.2222502 h -1.35943 v 0.9334508 h 1.274235 v 0.2222502 h -1.274235 v 1.022351 h 1.418697 V 7.3150187 H 72.337641 V 4.6924663 Z"
           id="path846" />
        <path
           d="m 78.768073,6.3963845 h 1.203855 l -0.592667,-1.437218 z m 0.748242,-1.7039182 1.103843,2.6225524 h -0.274109 l -0.285221,-0.696384 h -1.389064 l -0.296333,0.696384 h -0.255588 l 1.144589,-2.6225524 z"
           id="path848" />
        <path
           d="m 83.26123,5.8481673 q 0.285222,0 0.440797,-0.1259417 0.155575,-0.129646 0.155575,-0.3407837 0,-0.2111377 -0.151871,-0.3370794 -0.151871,-0.1259418 -0.451909,-0.129646 h -0.529696 v 0.9334508 z m -0.07408,-1.155701 q 0.907522,0 0.91493,0.6889756 0,0.5815547 -0.670455,0.674159 l 0.763059,1.2594178 H 83.916869 L 83.179739,6.0704175 H 82.724126 V 7.3150187 H 82.479651 V 4.6924663 Z"
           id="path850" />
        <path
           d="M 87.902548,4.6924663 V 4.9147165 H 87.006139 V 7.3150187 H 86.761664 V 4.9147165 H 85.865255 V 4.6924663 Z"
           id="path852" />
        <path
           d="m 91.391875,4.6924663 v 0.2222502 h -1.35943 v 0.9334508 h 1.274234 v 0.2222502 h -1.274234 v 1.022351 h 1.418697 V 7.3150187 H 89.78797 V 4.6924663 Z"
           id="path854" />
        <path
           d="m 94.21445,4.6257912 q 0.455613,0 0.714905,0.3296712 L 94.718217,5.1073333 Q 94.5256,4.8480414 94.207042,4.8480414 q -0.259292,0 -0.422276,0.1333502 -0.159279,0.1333501 -0.166687,0.3630086 0,0.2000252 0.122237,0.325967 0.122238,0.1222376 0.42598,0.2074335 0.40005,0.1185334 0.5334,0.2111377 0.13335,0.0889 0.200025,0.2222502 0.07038,0.1333501 0.07038,0.3333753 0,0.3185586 -0.229659,0.5259921 -0.225954,0.2037294 -0.585259,0.2111377 -0.566738,0 -0.851959,-0.3963462 l 0.233363,-0.1555751 q 0.196321,0.3259669 0.600075,0.3296711 0.262996,0 0.42598,-0.1444626 0.162983,-0.1481668 0.162983,-0.370417 0,-0.129646 -0.04815,-0.2111377 Q 94.633025,6.3482302 94.536717,6.2889636 94.444107,6.2259926 94.295946,6.1778385 94.151483,6.1259805 93.955162,6.059305 93.658828,5.962997 93.514366,5.7889006 93.373607,5.6148046 93.373607,5.3444002 q 0,-0.3185586 0.237067,-0.5185838 0.240771,-0.2000252 0.60378,-0.2000252 z"
           id="path856" />
        <path
           d="m 97.314841,6.3963845 h 1.203855 l -0.592667,-1.437218 z m 0.748242,-1.7039182 1.103843,2.6225524 h -0.274109 l -0.285221,-0.696384 h -1.389063 l -0.296334,0.696384 H 96.666611 L 97.8112,4.6924663 Z"
           id="path858" />
        <path
           d="m 101.34127,4.6924663 1.5965,2.2965854 h 0.007 V 4.6924663 h 0.24447 v 2.6225524 h -0.31485 l -1.5965,-2.2965854 h -0.007 v 2.2965854 h -0.24447 V 4.6924663 Z"
           id="path860" />
        <path
           d="m 105.69738,6.3963845 h 1.20385 l -0.59266,-1.437218 z m 0.74824,-1.7039182 1.10384,2.6225524 h -0.2741 l -0.28523,-0.696384 h -1.38906 l -0.29633,0.696384 h -0.25559 l 1.14459,-2.6225524 z"
           id="path862" />
        <path
           d="m 109.65344,4.6924663 v 2.4003022 h 1.22237 v 0.2222502 h -1.46685 V 4.6924663 Z"
           id="path864" />
        <path
           d="M 115.90236,6.3371178 V 6.537143 h -0.91493 V 6.3371178 Z"
           id="path866" />
      </g>
      <g
         aria-label="Chocolat"
         id="text7820"
         style="font-size:29.1042px;line-height:1.25;font-family:'Playfair Display';-inkscape-font-specification:'Playfair Display';stroke-width:0.264583">
        <path
           d="m 29.79611,11.449048 q 1.920877,0 3.143253,0.582084 1.251481,0.552979 2.211919,1.309689 0.582084,0.436563 0.873126,0.116416 0.320147,-0.34925 0.436563,-1.600731 h 0.669397 q -0.05821,1.076856 -0.08731,2.619378 -0.0291,1.542523 -0.0291,4.074588 h -0.669396 q -0.20373,-1.25148 -0.378355,-1.979085 -0.174625,-0.756709 -0.436563,-1.280585 -0.232834,-0.523876 -0.640292,-1.047751 -0.902231,-1.193272 -2.270128,-1.717148 -1.367897,-0.55298 -2.881316,-0.55298 -1.426106,0 -2.590274,0.727605 -1.135063,0.698501 -1.979085,2.037294 -0.814918,1.338793 -1.280585,3.230566 -0.436563,1.891774 -0.436563,4.249214 0,2.444753 0.494771,4.336526 0.494772,1.862668 1.367898,3.143253 0.90223,1.280585 2.095502,1.949982 1.222377,0.640292 2.619378,0.640292 1.309689,0 2.735795,-0.523876 1.426106,-0.523875 2.241023,-1.688043 0.640293,-0.844022 0.873126,-1.833565 0.261938,-0.989543 0.465668,-2.764899 h 0.669396 q 0,2.648482 0.0291,4.278318 0.0291,1.600731 0.08731,2.70669 h -0.669397 q -0.116416,-1.25148 -0.407458,-1.571627 -0.261938,-0.320146 -0.902231,0.08731 -1.076855,0.756709 -2.299231,1.338793 -1.193273,0.55298 -3.085046,0.55298 -2.764899,0 -4.860401,-1.251481 -2.066398,-1.25148 -3.230566,-3.60892 -1.135064,-2.357441 -1.135064,-5.675319 0,-3.259671 1.193272,-5.704424 1.193272,-2.444753 3.259671,-3.81265 2.095502,-1.367897 4.802193,-1.367897 z"
           style="fill:#ffffff"
           id="path869" />
        <path
           d="M 44.435514,9.6736914 V 20.558662 q 0.756709,-1.979085 2.095503,-2.735795 1.367897,-0.756709 2.852211,-0.756709 1.10596,0 1.833565,0.291042 0.756709,0.291042 1.25148,0.814918 0.55298,0.582084 0.785814,1.45521 0.232833,0.873126 0.232833,2.35744 v 7.770822 q 0,1.222376 0.494772,1.658939 0.523875,0.436563 1.717148,0.436563 v 0.611188 q -0.494772,-0.0291 -1.513419,-0.05821 -1.018647,-0.05821 -1.979085,-0.05821 -0.960439,0 -1.891773,0.05821 -0.902231,0.0291 -1.367898,0.05821 v -0.611188 q 1.047751,0 1.484314,-0.436563 0.436563,-0.436563 0.436563,-1.658939 v -8.411114 q 0,-0.90223 -0.145521,-1.65894 -0.145521,-0.756709 -0.669396,-1.222376 -0.494772,-0.465667 -1.542523,-0.465667 -1.775356,0 -2.939524,1.484314 -1.135064,1.45521 -1.135064,3.783546 v 6.490237 q 0,1.222376 0.436563,1.658939 0.436563,0.436563 1.484314,0.436563 v 0.611188 q -0.465667,-0.0291 -1.397001,-0.05821 -0.90223,-0.05821 -1.862669,-0.05821 -0.960439,0 -1.979086,0.05821 -1.018647,0.0291 -1.513418,0.05821 v -0.611188 q 1.193272,0 1.688044,-0.436563 0.523875,-0.436563 0.523875,-1.658939 V 13.166195 q 0,-1.309689 -0.465667,-1.920877 -0.465667,-0.640292 -1.746252,-0.640292 V 9.9938376 q 0.931334,0.087312 1.80446,0.087312 0.844022,0 1.600731,-0.087312 0.785814,-0.1164168 1.426106,-0.3201462 z"
           style="fill:#ffffff"
           id="path871" />
        <path
           d="m 64.109935,17.066158 q 1.862668,0 3.346983,0.814918 1.484314,0.814918 2.35744,2.56117 0.90223,1.746252 0.90223,4.540255 0,2.794003 -0.90223,4.540255 -0.873126,1.717148 -2.35744,2.532065 -1.484315,0.814918 -3.346983,0.814918 -1.833565,0 -3.346984,-0.814918 -1.484314,-0.814917 -2.386544,-2.532065 -0.873126,-1.746252 -0.873126,-4.540255 0,-2.794003 0.873126,-4.540255 0.90223,-1.746252 2.386544,-2.56117 1.513419,-0.814918 3.346984,-0.814918 z m 0,0.582084 q -1.65894,0 -2.735795,1.717148 -1.047752,1.717148 -1.047752,5.617111 0,3.899963 1.047752,5.61711 1.076855,1.688044 2.735795,1.688044 1.658939,0 2.70669,-1.688044 1.076856,-1.717147 1.076856,-5.61711 0,-3.899963 -1.076856,-5.617111 -1.047751,-1.717148 -2.70669,-1.717148 z"
           style="fill:#ffffff"
           id="path873" />
        <path
           d="m 80.20451,17.066158 q 0.931335,0 1.804461,0.232834 0.873126,0.232833 1.571626,0.698501 0.669397,0.436563 1.018647,1.018647 0.349251,0.55298 0.349251,1.222376 0,0.785814 -0.436563,1.222377 -0.436563,0.407458 -1.10596,0.407458 -0.640292,0 -1.135064,-0.378354 -0.465667,-0.378355 -0.465667,-1.076856 0,-0.669396 0.349251,-1.076855 0.378354,-0.407459 0.873126,-0.523876 -0.291042,-0.523875 -1.047752,-0.873126 -0.727605,-0.34925 -1.571626,-0.34925 -0.727605,0 -1.45521,0.34925 -0.727605,0.349251 -1.338794,1.164168 -0.611188,0.785814 -0.989542,2.182815 -0.378355,1.367898 -0.378355,3.434296 0,2.56117 0.582084,4.074588 0.582084,1.513418 1.513418,2.182815 0.960439,0.640292 2.095503,0.640292 1.135064,0 2.299232,-0.669396 1.164168,-0.669397 1.920877,-2.328336 l 0.55298,0.203729 q -0.291042,0.931335 -0.960439,1.891773 -0.669397,0.931335 -1.746252,1.542523 -1.076855,0.611188 -2.648482,0.611188 -1.804461,0 -3.259671,-0.931334 -1.45521,-0.931335 -2.328336,-2.648483 -0.844021,-1.746252 -0.844021,-4.132796 0,-2.386544 0.844021,-4.191005 0.873126,-1.833564 2.415649,-2.852212 1.542523,-1.047751 3.521608,-1.047751 z"
           style="fill:#ffffff"
           id="path875" />
        <path
           d="m 94.203578,17.066158 q 1.862669,0 3.346983,0.814918 1.484314,0.814918 2.35744,2.56117 0.902229,1.746252 0.902229,4.540255 0,2.794003 -0.902229,4.540255 -0.873126,1.717148 -2.35744,2.532065 -1.484314,0.814918 -3.346983,0.814918 -1.833565,0 -3.346983,-0.814918 -1.484315,-0.814917 -2.386545,-2.532065 -0.873126,-1.746252 -0.873126,-4.540255 0,-2.794003 0.873126,-4.540255 0.90223,-1.746252 2.386545,-2.56117 1.513418,-0.814918 3.346983,-0.814918 z m 0,0.582084 q -1.65894,0 -2.735795,1.717148 -1.047751,1.717148 -1.047751,5.617111 0,3.899963 1.047751,5.61711 1.076855,1.688044 2.735795,1.688044 1.658939,0 2.70669,-1.688044 1.076856,-1.717147 1.076856,-5.61711 0,-3.899963 -1.076856,-5.617111 -1.047751,-1.717148 -2.70669,-1.717148 z"
           style="fill:#ffffff"
           id="path877" />
        <path
           d="M 107.35862,9.6445872 V 29.75559 q 0,1.222376 0.49477,1.658939 0.52388,0.436563 1.71715,0.436563 v 0.611188 q -0.49477,-0.0291 -1.51342,-0.05821 -0.98954,-0.05821 -2.00819,-0.05821 -0.98954,0 -2.00819,0.05821 -1.01864,0.0291 -1.51342,0.05821 v -0.611188 q 1.19328,0 1.68805,-0.436563 0.52387,-0.436563 0.52387,-1.658939 V 13.137091 q 0,-1.309689 -0.46566,-1.920877 -0.46567,-0.640292 -1.74626,-0.640292 V 9.9647334 q 0.93134,0.087313 1.80446,0.087313 0.84403,0 1.60074,-0.087313 0.78581,-0.1164168 1.4261,-0.3201462 z"
           style="fill:#ffffff"
           id="path879" />
        <path
           d="m 114.9548,32.66601 q -1.89177,0 -2.7649,-0.931335 -0.84402,-0.960438 -0.84402,-2.532065 0,-1.222377 0.58208,-2.00819 0.61119,-0.814918 1.54253,-1.309689 0.93133,-0.523876 1.94998,-0.873126 1.04775,-0.378355 1.97908,-0.727605 0.93134,-0.34925 1.51342,-0.785813 0.61119,-0.436563 0.61119,-1.10596 v -1.80446 q 0,-1.222377 -0.37836,-1.862669 -0.34925,-0.640293 -0.96043,-0.844022 -0.61119,-0.232834 -1.3679,-0.232834 -0.72761,0 -1.57163,0.20373 -0.81492,0.203729 -1.30969,0.844022 0.55298,0.116416 0.96044,0.582084 0.40746,0.465667 0.40746,1.193272 0,0.727605 -0.46567,1.164168 -0.46566,0.407459 -1.19327,0.407459 -0.84402,0 -1.25148,-0.523876 -0.37835,-0.55298 -0.37835,-1.222376 0,-0.75671 0.37835,-1.222377 0.37836,-0.465667 0.96044,-0.873126 0.6694,-0.465667 1.71715,-0.785813 1.07685,-0.349251 2.41565,-0.349251 1.19327,0 2.03729,0.291042 0.84402,0.261938 1.397,0.785814 0.75671,0.698501 0.98954,1.717148 0.23284,0.989542 0.23284,2.386544 v 8.090968 q 0,0.6985 0.20373,1.047751 0.20373,0.320146 0.6985,0.320146 0.40746,0 0.6985,-0.174625 0.32014,-0.174625 0.61119,-0.436563 l 0.32014,0.494771 q -0.61119,0.465667 -1.16417,0.785814 -0.55297,0.291042 -1.48431,0.291042 -1.51342,0 -2.00819,-0.785814 -0.49477,-0.785813 -0.49477,-1.80446 -0.93133,1.542522 -2.12461,2.066398 -1.16417,0.523876 -2.44475,0.523876 z m 1.28058,-1.164168 q 0.87313,0 1.71715,-0.494772 0.84402,-0.523875 1.57163,-1.717148 v -5.704423 q -0.43656,0.640293 -1.3679,1.018647 -0.90223,0.378355 -1.89177,0.844022 -0.96044,0.436563 -1.65894,1.222376 -0.6985,0.75671 -0.6985,2.182815 0,1.338794 0.6694,2.00819 0.66939,0.640293 1.65893,0.640293 z"
           style="fill:#ffffff"
           id="path881" />
        <path
           d="m 130.23448,12.64232 v 4.860401 h 4.30742 v 0.582084 h -4.30742 v 11.263326 q 0,1.367897 0.49477,1.920877 0.49477,0.55298 1.3679,0.55298 0.87312,0 1.51342,-0.698501 0.64029,-0.727605 1.10596,-2.415649 l 0.58208,0.145521 q -0.29104,1.688044 -1.16417,2.852212 -0.84402,1.164168 -2.61938,1.164168 -0.98954,0 -1.62983,-0.261938 -0.64029,-0.232833 -1.13506,-0.698501 -0.6403,-0.669396 -0.90223,-1.600731 -0.23284,-0.931334 -0.23284,-2.473857 v -9.749907 h -2.794 v -0.582084 h 2.794 v -4.452942 q 0.72761,-0.0291 1.397,-0.116417 0.6694,-0.08731 1.22238,-0.291042 z"
           style="fill:#ffffff"
           id="path883" />
      </g>
      <g
         aria-label="rêves"
         id="text11256"
         style="font-size:29.1042px;line-height:1.25;font-family:'Playfair Display';-inkscape-font-specification:'Playfair Display';stroke-width:0.264583">
        <path
           d="m 51.991932,43.388508 q 0.785814,0 1.367898,0.320146 0.611188,0.320146 0.931334,0.844022 0.349251,0.494771 0.349251,1.135064 0,0.727605 -0.465668,1.280584 -0.436563,0.55298 -1.193272,0.55298 -0.611188,0 -1.076855,-0.378354 -0.465667,-0.407459 -0.465667,-1.135064 0,-0.55298 0.291042,-0.931335 0.320146,-0.407458 0.6985,-0.640292 -0.203729,-0.291042 -0.611188,-0.291042 -1.222376,0 -2.124606,0.931334 -0.902231,0.902231 -1.426106,2.182815 -0.494772,1.280585 -0.494772,2.357441 v 6.17009 q 0,1.426106 0.814918,1.920877 0.844022,0.465668 2.270128,0.465668 v 0.611188 q -0.669397,-0.0291 -1.891774,-0.05821 -1.222376,-0.05821 -2.590273,-0.05821 -0.989543,0 -1.979086,0.05821 -0.960439,0.02911 -1.45521,0.05821 v -0.611188 q 1.193272,0 1.688044,-0.436563 0.523875,-0.436563 0.523875,-1.65894 v -9.109615 q 0,-1.309689 -0.465667,-1.920877 -0.465667,-0.640292 -1.746252,-0.640292 v -0.611188 q 0.931334,0.08731 1.80446,0.08731 0.844022,0 1.600731,-0.08731 0.785814,-0.116417 1.426106,-0.320147 v 3.638025 q 0.320146,-0.844021 0.90223,-1.688043 0.611189,-0.873126 1.455211,-1.45521 0.844021,-0.582084 1.862668,-0.582084 z"
           style="fill:#ffffff"
           id="path886" />
        <path
           d="m 62.382109,43.388508 q 2.56117,0 3.987276,1.571627 1.45521,1.542522 1.45521,4.831297 H 57.550812 l -0.0291,-0.55298 h 7.508884 q 0.05821,-1.426106 -0.232834,-2.619378 -0.291042,-1.222376 -0.931334,-1.949981 -0.611189,-0.727605 -1.600731,-0.727605 -1.338794,0 -2.386545,1.338793 -1.018647,1.338793 -1.222376,4.249213 l 0.08731,0.116417 q -0.05821,0.436563 -0.08731,0.960439 -0.0291,0.523875 -0.0291,1.047751 0,1.979085 0.640292,3.405191 0.640292,1.426106 1.658939,2.182815 1.047752,0.727605 2.153711,0.727605 1.309689,0 2.415649,-0.640292 1.105959,-0.640293 1.862669,-2.270128 l 0.582084,0.232834 q -0.320147,0.960438 -1.047752,1.862669 -0.727605,0.90223 -1.833564,1.484314 -1.10596,0.55298 -2.56117,0.55298 -2.095502,0 -3.608921,-0.960439 -1.484314,-0.960439 -2.299231,-2.648482 -0.785814,-1.717148 -0.785814,-3.929067 0,-2.56117 0.814918,-4.394735 0.814917,-1.862668 2.299232,-2.852211 1.484314,-1.018647 3.463399,-1.018647 z m 0.232834,-7.945447 q 0.582084,1.45521 1.862669,2.823108 1.309689,1.338793 2.997732,2.182815 l -0.232833,0.407458 q -1.571627,-0.552979 -3.055941,-1.338793 -1.484314,-0.785813 -2.415649,-1.571627 -0.727605,0.785814 -1.920877,1.571627 -1.164168,0.785814 -2.386544,1.338793 l -0.232834,-0.407458 q 1.688044,-0.844022 2.968628,-2.182815 1.309689,-1.367898 1.891773,-2.823108 z"
           style="fill:#ffffff"
           id="path888" />
        <path
           d="m 83.22063,43.795967 v 0.582084 q -0.55298,0.05821 -1.018647,0.494771 -0.465667,0.436563 -0.873126,1.542523 l -4.773089,12.514806 q -0.116417,0 -0.232833,0 -0.116417,0 -0.261938,0 L 70.705824,46.03699 Q 70.240157,44.901926 69.77449,44.669093 69.337927,44.407155 69.01778,44.407155 v -0.611188 q 0.582084,0.0291 1.193273,0.08731 0.640292,0.0291 1.367897,0.0291 0.90223,0 1.891773,-0.0291 1.018647,-0.0291 1.891773,-0.08731 v 0.611188 q -0.727605,0 -1.309689,0.116417 -0.55298,0.08731 -0.727605,0.552979 -0.145521,0.465668 0.291042,1.600731 l 3.638025,8.993198 -0.174625,0.145521 3.317879,-8.702156 q 0.55298,-1.45521 0.116417,-2.037294 -0.407459,-0.582084 -1.949982,-0.6985 v -0.582084 q 0.756709,0.0291 1.251481,0.05821 0.523875,0.0291 1.193272,0.0291 0.669397,0 1.193272,-0.0291 0.55298,-0.0291 1.018647,-0.05821 z"
           style="fill:#ffffff"
           id="path890" />
        <path
           d="m 90.962279,43.388508 q 2.56117,0 3.987276,1.571627 1.45521,1.542522 1.45521,4.831297 H 86.130982 l -0.0291,-0.55298 h 7.508883 q 0.05821,-1.426106 -0.232833,-2.619378 -0.291042,-1.222376 -0.931335,-1.949981 -0.611188,-0.727605 -1.600731,-0.727605 -1.338793,0 -2.386544,1.338793 -1.018647,1.338793 -1.222377,4.249213 l 0.08731,0.116417 q -0.05821,0.436563 -0.08731,0.960439 -0.0291,0.523875 -0.0291,1.047751 0,1.979085 0.640293,3.405191 0.640292,1.426106 1.658939,2.182815 1.047751,0.727605 2.153711,0.727605 1.309689,0 2.415649,-0.640292 1.105959,-0.640293 1.862668,-2.270128 l 0.582084,0.232834 q -0.320146,0.960438 -1.047751,1.862669 -0.727605,0.90223 -1.833564,1.484314 -1.10596,0.55298 -2.56117,0.55298 -2.095503,0 -3.608921,-0.960439 -1.484314,-0.960439 -2.299232,-2.648482 -0.785813,-1.717148 -0.785813,-3.929067 0,-2.56117 0.814917,-4.394735 0.814918,-1.862668 2.299232,-2.852211 1.484314,-1.018647 3.4634,-1.018647 z"
           style="fill:#ffffff"
           id="path892" />
        <path
           d="m 103.82629,43.388508 q 1.16417,0 1.97909,0.378354 0.81492,0.378355 1.19327,0.698501 0.96044,0.785814 1.16417,-1.047751 h 0.6694 q -0.0582,0.814918 -0.0873,1.949981 -0.0291,1.10596 -0.0291,2.997733 h -0.6694 q -0.17462,-1.076855 -0.61118,-2.095502 -0.40746,-1.018647 -1.22238,-1.65894 -0.81492,-0.669396 -2.12461,-0.669396 -1.01864,0 -1.71715,0.582084 -0.66939,0.552979 -0.66939,1.658939 0,0.873126 0.52387,1.513418 0.52388,0.611189 1.3679,1.164168 0.84402,0.523876 1.83357,1.164169 1.65894,1.076855 2.8231,2.182815 1.16417,1.105959 1.16417,2.91042 0,1.338793 -0.6985,2.241023 -0.6985,0.90223 -1.83356,1.367897 -1.10596,0.465668 -2.44476,0.465668 -0.64029,0 -1.22237,-0.116417 -0.55298,-0.08731 -1.07686,-0.291042 -0.29104,-0.145521 -0.61119,-0.349251 -0.29104,-0.203729 -0.58208,-0.436563 -0.29104,-0.232833 -0.52388,0.02911 -0.23283,0.232833 -0.34925,0.960438 h -0.669394 q 0.05821,-0.931334 0.08731,-2.270127 0.0291,-1.338794 0.0291,-3.550713 h 0.669394 q 0.20373,1.629835 0.58208,2.852212 0.37836,1.222376 1.19328,1.920877 0.81491,0.669397 2.27012,0.669397 0.87313,0 1.71715,-0.611189 0.87313,-0.611188 0.87313,-2.15371 0,-1.280585 -0.93134,-2.095503 -0.93133,-0.814917 -2.35744,-1.717148 -1.04775,-0.669396 -1.97908,-1.338793 -0.90223,-0.669396 -1.48432,-1.513418 -0.552974,-0.844022 -0.552974,-2.037294 0,-1.309689 0.582084,-2.124607 0.61119,-0.844022 1.60073,-1.222376 0.98954,-0.407459 2.1246,-0.407459 z"
           style="fill:#ffffff"
           id="path894" />
      </g>
      <g
         aria-label="de"
         id="text12940"
         style="font-size:8.46667px;line-height:1.25;font-family:'Playfair Display';-inkscape-font-specification:'Playfair Display';stroke-width:0.264583">
        <path
           d="m 35.302325,46.847414 q -0.05927,0.194734 -0.0508,0.364067 0.01693,0.160867 0.2032,0.160867 0.169333,0 0.313267,-0.186267 0.143933,-0.194733 0.3048,-0.677333 l 0.1016,-0.313267 h 0.160866 l -0.194733,0.618067 q -0.160867,0.516467 -0.448733,0.694267 -0.279401,0.1778 -0.533401,0.1778 -0.508,0 -0.5334,-0.4826 -0.0085,-0.135467 0.01693,-0.313267 0.03387,-0.1778 0.09313,-0.389467 l 1.2192,-4.580468 q 0.0762,-0.287867 -0.0254,-0.423334 -0.1016,-0.135467 -0.516467,-0.135467 l 0.0508,-0.1778 q 0.465667,-0.0085 0.821267,-0.09313 0.355601,-0.09313 0.677334,-0.254 z m -1.896534,0.567267 q 0.211666,0 0.474133,-0.245533 0.270934,-0.254 0.541867,-0.677334 0.2794,-0.4318 0.508,-0.973667 0.237067,-0.550333 0.372534,-1.134533 l -0.127,0.9144 q -0.3302,0.872067 -0.660401,1.397 -0.321733,0.524934 -0.6604,0.762001 -0.3302,0.2286 -0.694267,0.2286 -0.397933,0 -0.643467,-0.270934 -0.237066,-0.2794 -0.237066,-0.846667 0,-0.4064 0.127,-0.872067 0.135466,-0.474133 0.381,-0.931333 0.245533,-0.457201 0.5842,-0.829734 0.347133,-0.381 0.762,-0.6096 0.414867,-0.2286 0.880534,-0.2286 0.194733,0 0.364067,0.1524 0.169333,0.143933 0.186266,0.440267 l -0.06773,0.169333 q -0.03387,-0.3048 -0.169333,-0.4318 -0.135467,-0.135467 -0.3048,-0.135467 -0.406401,0 -0.770467,0.3302 -0.355601,0.3302 -0.635001,0.855134 -0.270933,0.524933 -0.4318,1.109134 -0.1524,0.5842 -0.1524,1.0922 0,0.372534 0.09313,0.5588 0.09313,0.1778 0.279401,0.1778 z"
           style="font-style:italic;-inkscape-font-specification:'Playfair Display Italic';fill:#ffffff"
           id="path897" />
        <path
           d="m 37.478257,45.645147 q 0.474134,-0.160866 0.855134,-0.313266 0.389467,-0.160867 0.618067,-0.338667 0.3048,-0.245534 0.4826,-0.592667 0.1778,-0.347134 0.1778,-0.762 0,-0.245534 -0.03387,-0.313267 -0.03387,-0.06773 -0.1016,-0.06773 -0.262466,0 -0.575733,0.287867 -0.313267,0.2794 -0.592667,0.762 -0.2794,0.474134 -0.465667,1.049868 -0.1778,0.575733 -0.1778,1.159933 0,0.431801 0.160867,0.626534 0.160866,0.186267 0.423333,0.186267 0.3048,0 0.643467,-0.186267 0.338667,-0.186267 0.6604,-0.6604 l 0.135467,0.06773 q -0.160867,0.2794 -0.423333,0.541867 -0.262467,0.262467 -0.592667,0.4318 -0.321734,0.160867 -0.685801,0.160867 -0.516466,0 -0.821267,-0.296334 -0.296333,-0.3048 -0.296333,-0.897467 0,-0.364066 0.135467,-0.8128 0.135466,-0.4572 0.381,-0.905934 0.254,-0.4572 0.601133,-0.8382 0.347134,-0.381 0.770467,-0.6096 0.423334,-0.2286 0.905934,-0.2286 0.262467,0 0.440267,0.143933 0.186267,0.135467 0.186267,0.414867 0,0.338667 -0.2032,0.635 -0.194734,0.287867 -0.524934,0.5334 -0.321733,0.237067 -0.702734,0.423334 -0.381,0.186267 -0.745067,0.321733 -0.364066,0.135467 -0.643466,0.220134 z"
           style="font-style:italic;-inkscape-font-specification:'Playfair Display Italic';fill:#ffffff"
           id="path899" />
      </g>
    </g>
  </g>
</svg>
