<?xml version="1.0" encoding="UTF-8" standalone="no"?>
<svg
   width="33"
   height="33"
   x="0"
   y="0"
   viewBox="0 0 65 65"
   xmlns="http://www.w3.org/2000/svg"
   xmlns:svg="http://www.w3.org/2000/svg">

    <path
       transform="translate(-1,-1)"
       class="_3eJ0f"
       d="M 51,24.1 A 14.2,14.2 0 0 1 46.9,25.2 7.1,7.1 0 0 0 50,21.3 14.1,14.1 0 0 1 45.5,23 7.1,7.1 0 0 0 33.4,29.5 20.1,20.1 0 0 1 18.8,22.1 7.1,7.1 0 0 0 21,31.5 7.1,7.1 0 0 1 17.8,30.6 v 0 a 7.1,7.1 0 0 0 5.7,6.9 l -1.9,0.2 h -1.2 a 7.1,7.1 0 0 0 6.6,5 14.2,14.2 0 0 1 -8.8,3 h -1.7 a 20,20 0 0 0 10.8,3.2 c 13,0 20.1,-10.8 20.1,-20.1 0,-0.3 0,-0.6 0,-0.9 A 14.3,14.3 0 0 0 51,24.1"
       id="path2"
       style="fill:#ffffff;fill-opacity:1" />

</svg>
